<?xml version="1.0" encoding="UTF-8"?>
<svg xmlns="http://www.w3.org/2000/svg" xmlns:xlink="http://www.w3.org/1999/xlink" width="2501" height="2501" viewBox="0 0 2501 2501">
<path fill-rule="nonzero" fill="rgb(30.200195%, 30.200195%, 30.200195%)" fill-opacity="1" d="M 1250.839844 918.78125 C 1159.328125 918.78125 1076.480469 955.871094 1016.519531 1015.839844 C 956.550781 1075.800781 919.460938 1158.648438 919.460938 1250.160156 C 919.460938 1341.671875 956.554688 1424.519531 1016.519531 1484.480469 C 1076.480469 1544.445312 1159.328125 1581.539062 1250.839844 1581.539062 C 1342.351562 1581.539062 1425.199219 1544.445312 1485.160156 1484.480469 C 1545.128906 1424.519531 1582.21875 1341.671875 1582.21875 1250.160156 C 1582.21875 1158.648438 1545.128906 1075.800781 1485.160156 1015.839844 C 1425.199219 955.871094 1342.351562 918.78125 1250.839844 918.78125 Z M 989.042969 988.359375 C 1056.039062 921.359375 1148.601562 879.921875 1250.839844 879.921875 C 1353.078125 879.921875 1445.640625 921.359375 1512.640625 988.359375 C 1579.640625 1055.359375 1621.078125 1147.921875 1621.078125 1250.160156 C 1621.078125 1352.390625 1579.640625 1444.960938 1512.640625 1511.957031 C 1445.640625 1578.957031 1353.078125 1620.398438 1250.839844 1620.398438 C 1148.601562 1620.398438 1056.039062 1578.957031 989.042969 1511.957031 C 922.042969 1444.960938 880.601562 1352.398438 880.601562 1250.160156 C 880.601562 1147.921875 922.039062 1055.359375 989.042969 988.359375 "/>
<path fill-rule="nonzero" fill="rgb(30.200195%, 30.200195%, 30.200195%)" fill-opacity="1" d="M 1122.941406 589.859375 C 1142.511719 554.328125 1174.53125 530.039062 1210.480469 519.480469 C 1246.488281 508.898438 1286.421875 512.089844 1321.730469 531.539062 C 1357.101562 551.019531 1381.160156 583.078125 1391.449219 619.148438 C 1401.730469 655.160156 1398.308594 695.191406 1378.738281 730.710938 C 1359.171875 766.238281 1327.148438 790.53125 1291.199219 801.089844 C 1255.191406 811.671875 1215.269531 808.480469 1179.949219 789.039062 L 1180.019531 788.910156 L 1179.949219 789.03125 C 1144.578125 769.550781 1120.519531 737.488281 1110.21875 701.421875 C 1099.941406 665.421875 1103.371094 625.378906 1122.941406 589.859375 Z M 1156.941406 608.53125 C 1142.511719 634.730469 1139.988281 664.25 1147.570312 690.789062 C 1155.121094 717.269531 1172.738281 740.78125 1198.621094 755.03125 C 1224.558594 769.320312 1253.859375 771.660156 1280.269531 763.898438 C 1306.730469 756.128906 1330.308594 738.230469 1344.738281 712.039062 L 1344.859375 712.109375 L 1344.738281 712.039062 C 1359.171875 685.851562 1361.691406 656.328125 1354.109375 629.78125 C 1346.558594 603.300781 1328.941406 579.800781 1303.058594 565.539062 C 1277.121094 551.261719 1247.820312 548.910156 1221.410156 556.671875 C 1194.949219 564.441406 1171.359375 582.351562 1156.941406 608.53125 "/>
<path fill-rule="nonzero" fill="rgb(30.200195%, 30.200195%, 30.200195%)" fill-opacity="1" d="M 1270.269531 777.558594 L 1270.269531 899.351562 L 1231.410156 899.351562 L 1231.410156 777.558594 L 1270.269531 777.558594 "/>
<path fill-rule="nonzero" fill="rgb(30.200195%, 30.200195%, 30.200195%)" fill-opacity="1" d="M 615.019531 1030.738281 C 594.066406 996.078125 589.054688 956.210938 597.886719 919.78125 C 606.734375 883.289062 629.464844 850.28125 663.976562 829.421875 C 698.492188 808.558594 738.261719 803.769531 774.648438 812.890625 C 811 821.988281 843.980469 844.988281 864.96875 879.710938 C 885.925781 914.371094 890.9375 954.238281 882.101562 990.671875 C 873.253906 1027.160156 850.523438 1060.160156 816.015625 1081.019531 C 781.496094 1101.890625 741.730469 1106.679688 705.339844 1097.558594 C 668.988281 1088.460938 636.007812 1065.460938 615.019531 1030.738281 Z M 648.261719 1010.710938 C 663.722656 1036.28125 688 1053.21875 714.746094 1059.921875 C 741.460938 1066.609375 770.644531 1063.089844 795.976562 1047.78125 C 821.304688 1032.46875 837.980469 1008.28125 844.460938 981.558594 C 850.957031 954.769531 847.222656 925.378906 831.730469 899.75 C 816.269531 874.171875 791.988281 857.230469 765.238281 850.53125 C 738.53125 843.839844 709.34375 847.351562 684.015625 862.660156 C 658.6875 877.980469 642.011719 902.160156 635.53125 928.890625 C 629.035156 955.679688 632.765625 985.070312 648.261719 1010.710938 "/>
<path fill-rule="nonzero" fill="rgb(30.200195%, 30.200195%, 30.200195%)" fill-opacity="1" d="M 851.269531 997.089844 L 956.746094 1057.980469 L 937.316406 1091.53125 L 831.839844 1030.628906 L 851.269531 997.089844 "/>
<path fill-rule="nonzero" fill="rgb(30.200195%, 30.200195%, 30.200195%)" fill-opacity="1" d="M 742.542969 1652.253906 L 742.542969 1652.320312 C 772.273438 1651.621094 798.960938 1639.0625 818.097656 1619.285156 C 837.242188 1599.503906 848.789062 1572.480469 848.195312 1542.910156 L 848.117188 1542.53125 L 848.183594 1542.527344 C 847.488281 1513.128906 834.882812 1486.738281 815.03125 1467.808594 C 795.035156 1448.75 767.71875 1437.261719 737.832031 1437.859375 L 737.449219 1437.941406 L 737.449219 1437.871094 C 707.71875 1438.570312 681.03125 1451.128906 661.890625 1470.910156 C 642.746094 1490.691406 631.203125 1517.710938 631.796875 1547.28125 C 632.390625 1576.835938 645.019531 1603.375 664.960938 1622.382812 C 684.953125 1641.441406 712.269531 1652.933594 742.160156 1652.332031 Z M 742.542969 1691.113281 L 742.542969 1691.042969 C 702.140625 1691.753906 665.25 1676.207031 638.246094 1650.464844 C 611.101562 1624.585938 593.902344 1588.398438 593.089844 1548.042969 C 592.277344 1507.703125 608.015625 1470.851562 634.113281 1443.890625 C 660.132812 1417.011719 696.507812 1399.96875 737.070312 1399.160156 L 737.449219 1399.078125 L 737.449219 1399.148438 C 777.851562 1398.441406 814.738281 1413.988281 841.746094 1439.730469 C 868.890625 1465.609375 886.089844 1501.792969 886.902344 1542.148438 L 886.976562 1542.527344 L 886.90625 1542.53125 C 887.609375 1582.722656 871.890625 1619.425781 845.878906 1646.304688 C 819.859375 1673.1875 783.480469 1690.222656 742.921875 1691.035156 L 742.542969 1691.113281 "/>
<path fill-rule="nonzero" fill="rgb(30.200195%, 30.200195%, 30.200195%)" fill-opacity="1" d="M 831.839844 1469.691406 L 937.316406 1408.789062 L 956.746094 1442.339844 L 851.269531 1503.234375 L 831.839844 1469.691406 "/>
<path fill-rule="nonzero" fill="rgb(30.200195%, 30.200195%, 30.200195%)" fill-opacity="1" d="M 1344.738281 1891.785156 C 1359.171875 1865.59375 1361.691406 1836.074219 1354.109375 1809.523438 C 1346.558594 1783.050781 1328.941406 1759.542969 1303.058594 1745.285156 C 1277.128906 1731.003906 1247.820312 1728.65625 1221.410156 1736.414062 C 1194.949219 1744.1875 1171.371094 1762.09375 1156.941406 1788.277344 C 1142.511719 1814.46875 1139.988281 1843.992188 1147.570312 1870.539062 C 1155.128906 1897.019531 1172.738281 1920.523438 1198.621094 1934.777344 C 1224.550781 1949.0625 1253.859375 1951.410156 1280.269531 1943.652344 C 1306.730469 1935.878906 1330.308594 1917.972656 1344.738281 1891.785156 Z M 1391.460938 1798.898438 C 1401.730469 1834.90625 1398.308594 1874.933594 1378.738281 1910.453125 C 1359.171875 1945.984375 1327.148438 1970.28125 1291.199219 1980.839844 C 1255.191406 1991.417969 1215.261719 1988.234375 1179.949219 1968.78125 C 1144.578125 1949.296875 1120.53125 1917.242188 1110.230469 1881.164062 C 1099.949219 1845.160156 1103.371094 1805.128906 1122.941406 1769.609375 C 1142.511719 1734.082031 1174.53125 1709.785156 1210.480469 1699.226562 C 1246.488281 1688.648438 1286.410156 1691.835938 1321.730469 1711.285156 C 1357.101562 1730.769531 1381.160156 1762.824219 1391.460938 1798.898438 "/>
<path fill-rule="nonzero" fill="rgb(30.200195%, 30.200195%, 30.200195%)" fill-opacity="1" d="M 1231.410156 1722.761719 L 1231.410156 1600.96875 L 1270.269531 1600.96875 L 1270.269531 1722.761719 L 1231.410156 1722.761719 "/>
<path fill-rule="nonzero" fill="rgb(30.200195%, 30.200195%, 30.200195%)" fill-opacity="1" d="M 1853.421875 1489.609375 C 1837.960938 1464.039062 1813.679688 1447.101562 1786.929688 1440.398438 C 1760.21875 1433.710938 1731.03125 1437.230469 1705.710938 1452.539062 C 1680.378906 1467.851562 1663.699219 1492.039062 1657.21875 1518.761719 C 1650.71875 1545.550781 1654.460938 1574.9375 1669.949219 1600.574219 C 1685.410156 1626.152344 1709.691406 1643.089844 1736.441406 1649.789062 C 1763.148438 1656.480469 1792.339844 1652.96875 1817.671875 1637.65625 C 1842.988281 1622.34375 1859.671875 1598.15625 1866.148438 1571.429688 C 1872.648438 1544.640625 1868.921875 1515.25 1853.421875 1489.609375 Z M 1796.339844 1402.761719 C 1832.691406 1411.859375 1865.671875 1434.859375 1886.660156 1469.578125 C 1907.609375 1504.242188 1912.628906 1544.105469 1903.789062 1580.535156 C 1894.949219 1617.03125 1872.210938 1650.035156 1837.699219 1670.898438 C 1803.191406 1691.761719 1763.421875 1696.554688 1727.03125 1687.433594 C 1690.679688 1678.328125 1657.699219 1655.332031 1636.710938 1620.613281 C 1615.761719 1585.949219 1610.738281 1546.082031 1619.578125 1509.65625 C 1628.421875 1473.160156 1651.160156 1440.160156 1685.671875 1419.300781 C 1720.179688 1398.429688 1759.949219 1393.640625 1796.339844 1402.761719 "/>
<path fill-rule="nonzero" fill="rgb(30.200195%, 30.200195%, 30.200195%)" fill-opacity="1" d="M 1650.410156 1503.234375 L 1544.929688 1442.339844 L 1564.359375 1408.789062 L 1669.839844 1469.691406 L 1650.410156 1503.234375 "/>
<path fill-rule="nonzero" fill="rgb(30.200195%, 30.200195%, 30.200195%)" fill-opacity="1" d="M 1759.140625 848.070312 L 1759.140625 848 C 1729.410156 848.699219 1702.71875 861.261719 1683.578125 881.039062 C 1664.441406 900.808594 1652.890625 927.839844 1653.480469 957.410156 L 1653.558594 957.789062 L 1653.488281 957.789062 C 1654.191406 987.191406 1666.800781 1013.578125 1686.648438 1032.511719 C 1706.640625 1051.570312 1733.960938 1063.058594 1763.851562 1062.460938 L 1764.230469 1062.378906 L 1764.230469 1062.449219 C 1793.960938 1061.75 1820.648438 1049.191406 1839.789062 1029.410156 C 1858.929688 1009.628906 1870.480469 982.609375 1869.878906 953.039062 C 1869.289062 923.480469 1856.660156 896.949219 1836.71875 877.941406 C 1816.71875 858.878906 1789.410156 847.390625 1759.519531 847.988281 Z M 1759.140625 809.210938 L 1759.140625 809.28125 C 1799.539062 808.570312 1836.429688 824.109375 1863.441406 849.859375 C 1890.578125 875.730469 1907.78125 911.921875 1908.589844 952.28125 C 1909.398438 992.621094 1893.660156 1029.46875 1867.570312 1056.429688 C 1841.550781 1083.308594 1805.171875 1100.351562 1764.609375 1101.160156 L 1764.230469 1101.238281 L 1764.230469 1101.171875 C 1723.828125 1101.878906 1686.941406 1086.328125 1659.929688 1060.589844 C 1632.789062 1034.710938 1615.589844 998.53125 1614.78125 958.171875 L 1614.699219 957.789062 L 1614.769531 957.789062 C 1614.070312 917.601562 1629.789062 880.890625 1655.800781 854.019531 C 1681.820312 827.128906 1718.199219 810.101562 1758.761719 809.28125 L 1759.140625 809.210938 "/>
<path fill-rule="nonzero" fill="rgb(30.200195%, 30.200195%, 30.200195%)" fill-opacity="1" d="M 1669.839844 1030.628906 L 1564.359375 1091.53125 L 1544.929688 1057.980469 L 1650.410156 997.089844 L 1669.839844 1030.628906 "/>
<path fill-rule="nonzero" fill="rgb(30.200195%, 30.200195%, 30.200195%)" fill-opacity="1" d="M 1250.839844 1065.148438 C 1222.949219 1065.148438 1197.710938 1076.449219 1179.441406 1094.730469 C 1161.171875 1113 1149.859375 1138.238281 1149.859375 1166.128906 C 1149.859375 1194.019531 1161.171875 1219.261719 1179.441406 1237.53125 C 1197.710938 1255.800781 1222.949219 1267.109375 1250.839844 1267.109375 C 1278.730469 1267.109375 1303.96875 1255.800781 1322.238281 1237.53125 C 1340.511719 1219.261719 1351.820312 1194.019531 1351.820312 1166.128906 C 1351.820312 1138.238281 1340.511719 1113 1322.238281 1094.730469 C 1303.96875 1076.449219 1278.730469 1065.148438 1250.839844 1065.148438 Z M 1151.960938 1067.25 C 1177.269531 1041.949219 1212.230469 1026.289062 1250.839844 1026.289062 C 1289.449219 1026.289062 1324.410156 1041.949219 1349.71875 1067.25 C 1375.019531 1092.558594 1390.679688 1127.519531 1390.679688 1166.128906 C 1390.679688 1204.738281 1375.019531 1239.699219 1349.71875 1265.011719 C 1324.410156 1290.308594 1289.449219 1305.96875 1250.839844 1305.96875 C 1212.230469 1305.96875 1177.269531 1290.308594 1151.960938 1265.011719 C 1126.660156 1239.699219 1111 1204.738281 1111 1166.128906 C 1111 1127.519531 1126.660156 1092.558594 1151.960938 1067.25 "/>
<path fill-rule="nonzero" fill="rgb(30.200195%, 30.200195%, 30.200195%)" fill-opacity="1" d="M 1099 1321.71875 C 1084.601562 1337.761719 1072.71875 1356.078125 1063.96875 1376.058594 C 1053.050781 1400.988281 1046.988281 1428.628906 1046.988281 1457.78125 C 1046.988281 1469.449219 1047.921875 1480.699219 1049.710938 1491.460938 C 1051.210938 1500.53125 1053.371094 1509.503906 1056.128906 1518.34375 C 1083.199219 1538.039062 1113.300781 1553.726562 1145.570312 1564.53125 C 1178.511719 1575.5625 1213.910156 1581.539062 1250.839844 1581.539062 C 1287.769531 1581.539062 1323.171875 1575.5625 1356.109375 1564.53125 C 1388.378906 1553.726562 1418.480469 1538.039062 1445.550781 1518.34375 C 1448.308594 1509.503906 1450.46875 1500.53125 1451.96875 1491.460938 C 1453.761719 1480.699219 1454.691406 1469.449219 1454.691406 1457.78125 C 1454.691406 1428.628906 1448.628906 1400.988281 1437.710938 1376.058594 C 1428.960938 1356.078125 1417.078125 1337.761719 1402.679688 1321.71875 C 1385.191406 1338.78125 1364.820312 1352.941406 1342.359375 1363.390625 C 1314.5 1376.351562 1283.488281 1383.578125 1250.839844 1383.578125 C 1218.191406 1383.578125 1187.179688 1376.351562 1159.320312 1363.390625 C 1136.859375 1352.941406 1116.488281 1338.78125 1099 1321.71875 Z M 1028.449219 1360.570312 C 1042.011719 1329.601562 1061.828125 1302.03125 1086.28125 1279.449219 L 1101.160156 1265.710938 L 1114.210938 1281.191406 C 1130.929688 1301.011719 1151.839844 1317.140625 1175.570312 1328.171875 C 1198.398438 1338.789062 1223.898438 1344.71875 1250.839844 1344.71875 C 1277.78125 1344.71875 1303.28125 1338.789062 1326.109375 1328.171875 C 1349.839844 1317.140625 1370.75 1301.011719 1387.46875 1281.191406 L 1400.53125 1265.710938 L 1415.398438 1279.449219 C 1439.851562 1302.03125 1459.671875 1329.601562 1473.230469 1360.570312 C 1486.300781 1390.410156 1493.550781 1423.300781 1493.550781 1457.78125 C 1493.550781 1471.171875 1492.410156 1484.511719 1490.21875 1497.691406 C 1487.980469 1511.207031 1484.691406 1524.1875 1480.460938 1536.535156 L 1473.78125 1545.71875 C 1442.269531 1569.519531 1406.769531 1588.421875 1368.410156 1601.265625 C 1331.339844 1613.675781 1291.800781 1620.398438 1250.839844 1620.398438 C 1209.878906 1620.398438 1170.339844 1613.675781 1133.269531 1601.265625 C 1094.910156 1588.421875 1059.410156 1569.519531 1027.898438 1545.71875 L 1021.21875 1536.535156 C 1016.988281 1524.1875 1013.699219 1511.203125 1011.460938 1497.691406 C 1009.269531 1484.511719 1008.128906 1471.171875 1008.128906 1457.78125 C 1008.128906 1423.300781 1015.378906 1390.410156 1028.449219 1360.570312 "/>
<path fill-rule="nonzero" fill="rgb(30.200195%, 30.200195%, 30.200195%)" fill-opacity="1" d="M 1250.839844 918.78125 C 1159.328125 918.78125 1076.480469 955.871094 1016.519531 1015.839844 C 956.554688 1075.800781 919.460938 1158.648438 919.460938 1250.160156 C 919.460938 1341.671875 956.554688 1424.519531 1016.519531 1484.480469 C 1076.480469 1544.445312 1159.328125 1581.539062 1250.839844 1581.539062 C 1342.351562 1581.539062 1425.191406 1544.445312 1485.160156 1484.480469 C 1545.128906 1424.519531 1582.21875 1341.671875 1582.21875 1250.160156 C 1582.21875 1158.648438 1545.128906 1075.800781 1485.160156 1015.839844 C 1425.199219 955.871094 1342.351562 918.78125 1250.839844 918.78125 Z M 989.042969 988.359375 C 1056.039062 921.359375 1148.601562 879.921875 1250.839844 879.921875 C 1353.078125 879.921875 1445.640625 921.359375 1512.640625 988.359375 C 1579.640625 1055.359375 1621.078125 1147.921875 1621.078125 1250.160156 C 1621.078125 1352.390625 1579.640625 1444.960938 1512.640625 1511.957031 C 1445.640625 1578.957031 1353.078125 1620.398438 1250.839844 1620.398438 C 1148.601562 1620.398438 1056.039062 1578.957031 989.042969 1511.957031 C 922.042969 1444.960938 880.601562 1352.390625 880.601562 1250.160156 C 880.601562 1147.921875 922.042969 1055.359375 989.042969 988.359375 "/>
</svg>
