<?xml version="1.0" encoding="UTF-8"?>
<svg xmlns="http://www.w3.org/2000/svg" xmlns:xlink="http://www.w3.org/1999/xlink" width="2834.88" height="2834.88" viewBox="0 0 2834.88 2834.88">
<path fill-rule="evenodd" fill="rgb(4.699707%, 55.664062%, 21.604919%)" fill-opacity="1" d="M 1049.191406 2301.101562 C 1045.75 2248.035156 1032.691406 2203.886719 1012.5 2157.433594 C 942.078125 1995.367188 792.351562 1851.460938 700.378906 1669.199219 C 655.011719 1579.351562 623.066406 1521.390625 595.421875 1421.550781 C 591.878906 1408.839844 591.917969 1395.691406 590.605469 1369.5 C 586.539062 1288.890625 583.433594 1226.371094 582.519531 1208.128906 C 581.203125 1181.820312 639.675781 1175.890625 656.367188 1225.738281 C 666.800781 1256.980469 668.355469 1339.511719 697.433594 1410.871094 C 725.554688 1479.871094 758.695312 1539.820312 772.636719 1575.519531 C 852.179688 1632.441406 924.710938 1690.238281 990.195312 1748.859375 C 1001.871094 1759.28125 1077.269531 1832.519531 1090.53125 1826.410156 C 1114.308594 1815.390625 949.089844 1533.960938 1027.761719 1507.839844 C 1098.261719 1484.441406 1126.898438 1612.980469 1155.460938 1655.570312 C 1212.261719 1740.308594 1264.039062 1807.03125 1300.960938 1873.089844 C 1337.488281 1938.554688 1361.230469 1999.714844 1341.03125 2116.613281 C 1335.351562 2196.109375 1331.589844 2257.609375 1329.75 2301.101562 Z M 1496.429688 2301.101562 C 1494.589844 2257.609375 1490.820312 2196.109375 1485.140625 2116.613281 C 1464.949219 1999.714844 1488.691406 1938.554688 1525.21875 1873.089844 C 1562.140625 1807.03125 1613.921875 1740.308594 1670.71875 1655.570312 C 1699.28125 1612.980469 1727.921875 1484.441406 1798.421875 1507.839844 C 1877.089844 1533.960938 1711.871094 1815.390625 1735.648438 1826.410156 C 1748.910156 1832.519531 1824.308594 1759.28125 1835.941406 1748.859375 C 1901.46875 1690.238281 1974 1632.441406 2053.539062 1575.519531 C 2067.441406 1539.820312 2100.621094 1479.871094 2128.738281 1410.871094 C 2157.820312 1339.511719 2159.378906 1256.980469 2169.808594 1225.738281 C 2186.5 1175.890625 2244.96875 1181.820312 2243.660156 1208.128906 C 2242.738281 1226.371094 2239.640625 1288.890625 2235.570312 1369.5 C 2234.261719 1395.691406 2234.261719 1408.839844 2230.75 1421.550781 C 2203.109375 1521.390625 2171.171875 1579.351562 2125.800781 1669.199219 C 2033.828125 1851.460938 1884.101562 1995.367188 1813.679688 2157.433594 C 1793.460938 2203.886719 1780.410156 2248.035156 1776.980469 2301.101562 Z M 783.507812 1572.96875 C 781.558594 1531.089844 786.855469 1484.191406 803.824219 1437.359375 C 822.265625 1393.039062 841.664062 1361.828125 857.515625 1338.660156 C 883.726562 1300.378906 909.019531 1322.039062 913.480469 1351.589844 C 917.660156 1379.148438 907.027344 1416.691406 894.121094 1449.070312 C 872.8125 1502.570312 855.125 1570.171875 863.210938 1631.921875 C 836.484375 1611.179688 812.066406 1593.488281 783.507812 1572.96875 Z M 872.691406 1639.769531 C 869.945312 1608.558594 869.984375 1577.171875 875.042969 1547.109375 C 878.269531 1527.691406 884.28125 1509.238281 890.777344 1490.300781 C 895.195312 1478.769531 900.414062 1467.828125 906.550781 1457.511719 C 916.109375 1441.371094 931.164062 1450.359375 936.859375 1455.449219 C 967.371094 1482.671875 929.851562 1556.429688 932.039062 1589.808594 C 934.3125 1623.738281 944.429688 1668.359375 963.03125 1713.75 C 940.285156 1694.179688 916.785156 1674.730469 892.488281 1655.390625 C 885.957031 1650.160156 879.34375 1644.960938 872.691406 1639.769531 Z M 2130.179688 1380.699219 C 2127.308594 1389.910156 2124.128906 1399.039062 2120.460938 1408 C 2104.890625 1446.269531 2087.761719 1481.679688 2073.21875 1511.710938 C 2065.609375 1527.46875 2058.679688 1541.769531 2053.058594 1554.289062 C 2055.019531 1517.421875 2050.039062 1477.808594 2038.289062 1437.621094 C 2015.140625 1358.480469 2015.339844 1308.339844 2028.289062 1270.429688 C 2037.769531 1242.71875 2079.308594 1215.53125 2090.589844 1245.191406 C 2101.339844 1273.558594 2114.53125 1318.730469 2130.179688 1380.699219 Z M 2042.671875 1572.96875 C 2014.109375 1593.488281 1989.691406 1611.179688 1962.96875 1631.921875 C 1971.050781 1570.171875 1953.371094 1502.570312 1932.058594 1449.070312 C 1919.109375 1416.691406 1908.519531 1379.148438 1912.699219 1351.589844 C 1917.160156 1322.039062 1942.449219 1300.378906 1968.660156 1338.660156 C 1984.511719 1361.828125 2003.910156 1393.039062 2022.359375 1437.359375 C 2039.320312 1484.191406 2044.621094 1531.089844 2042.671875 1572.96875 Z M 1953.488281 1639.769531 C 1946.828125 1644.960938 1940.21875 1650.160156 1933.691406 1655.390625 C 1909.390625 1674.730469 1885.890625 1694.179688 1863.148438 1713.75 C 1881.75 1668.359375 1891.871094 1623.738281 1894.140625 1589.808594 C 1896.328125 1556.429688 1858.808594 1482.671875 1889.320312 1455.449219 C 1895.011719 1450.359375 1910.070312 1441.371094 1919.628906 1457.511719 C 1925.71875 1467.828125 1930.980469 1478.769531 1935.398438 1490.300781 C 1941.890625 1509.238281 1947.910156 1527.691406 1951.140625 1547.109375 C 1956.191406 1577.171875 1956.230469 1608.558594 1953.488281 1639.769531 Z M 695.996094 1380.699219 C 711.652344 1318.730469 724.835938 1273.558594 735.589844 1245.191406 C 746.863281 1215.53125 788.40625 1242.71875 797.886719 1270.429688 C 810.832031 1308.339844 810.992188 1358.480469 787.890625 1437.621094 C 776.140625 1477.808594 771.121094 1517.421875 773.113281 1554.289062 C 767.496094 1541.769531 760.566406 1527.46875 752.957031 1511.710938 C 738.417969 1481.679688 721.292969 1446.269531 705.71875 1408 C 702.054688 1399.039062 698.824219 1389.910156 695.996094 1380.699219 Z M 2247.691406 656.621094 C 2244.179688 701.339844 2237.171875 783.449219 2209.238281 874.480469 C 2193.058594 927.191406 2142.511719 1067.371094 2047.910156 1150.738281 C 1926.109375 1258.070312 1756.769531 1288.71875 1598.621094 1277.578125 C 1514.808594 1379.460938 1436.398438 1582.128906 1451.050781 1732.550781 C 1424.5 1732.390625 1398.339844 1730.648438 1372.640625 1727.429688 C 1373.230469 1531.699219 1492.289062 1248.300781 1624.660156 1142.621094 C 1751.5 1041.351562 1914.949219 988.441406 2001.929688 802.261719 C 1845.800781 1070.429688 1586.28125 1003.769531 1449.839844 1312.160156 C 1435.28125 1124.578125 1431.441406 911.261719 1596.78125 782.648438 C 1776.511719 642.910156 2121.730469 660.601562 2251.191406 483.808594 C 2253.089844 539.671875 2252.300781 598.050781 2247.691406 656.621094 Z M 762.15625 788.410156 C 806.972656 806.511719 857.4375 817.089844 868.503906 819.488281 C 991.683594 846.210938 1131.390625 856 1226.828125 916.691406 C 1374.53125 1010.640625 1388.179688 1188.390625 1390.839844 1345.621094 C 1253.011719 1099.820312 1042.359375 1175.75 891.328125 964.941406 C 1041.359375 1220.089844 1311.808594 1120.710938 1399.078125 1461.121094 C 1369.078125 1417.761719 1322.511719 1361.878906 1282.710938 1325.269531 C 1147.210938 1351.300781 995.542969 1341.941406 880.578125 1258.511719 C 726.113281 1146.390625 670.746094 916.328125 658.839844 719.710938 C 686.105469 750.371094 721.660156 772.050781 762.15625 788.410156 "/>
</svg>
